<svg fill="none" height="48" viewBox="0 0 48 48" width="48" xmlns="http://www.w3.org/2000/svg" xmlns:xlink="http://www.w3.org/1999/xlink"><filter id="a" color-interpolation-filters="sRGB" filterUnits="userSpaceOnUse" height="54" width="48" x="0" y="-3"><feFlood flood-opacity="0" result="BackgroundImageFix"/><feBlend in="SourceGraphic" in2="BackgroundImageFix" mode="normal" result="shape"/><feColorMatrix in="SourceAlpha" result="hardAlpha" type="matrix" values="0 0 0 0 0 0 0 0 0 0 0 0 0 0 0 0 0 0 127 0"/><feOffset dy="-3"/><feGaussianBlur stdDeviation="1.5"/><feComposite in2="hardAlpha" k2="-1" k3="1" operator="arithmetic"/><feColorMatrix type="matrix" values="0 0 0 0 0 0 0 0 0 0 0 0 0 0 0 0 0 0 0.1 0"/><feBlend in2="shape" mode="normal" result="effect1_innerShadow_3051_47023"/><feColorMatrix in="SourceAlpha" result="hardAlpha" type="matrix" values="0 0 0 0 0 0 0 0 0 0 0 0 0 0 0 0 0 0 127 0"/><feOffset dy="3"/><feGaussianBlur stdDeviation="1.5"/><feComposite in2="hardAlpha" k2="-1" k3="1" operator="arithmetic"/><feColorMatrix type="matrix" values="0 0 0 0 1 0 0 0 0 1 0 0 0 0 1 0 0 0 0.1 0"/><feBlend in2="effect1_innerShadow_3051_47023" mode="normal" result="effect2_innerShadow_3051_47023"/><feColorMatrix in="SourceAlpha" result="hardAlpha" type="matrix" values="0 0 0 0 0 0 0 0 0 0 0 0 0 0 0 0 0 0 127 0"/><feMorphology in="SourceAlpha" operator="erode" radius="1" result="effect3_innerShadow_3051_47023"/><feOffset/><feComposite in2="hardAlpha" k2="-1" k3="1" operator="arithmetic"/><feColorMatrix type="matrix" values="0 0 0 0 0.0627451 0 0 0 0 0.0941176 0 0 0 0 0.156863 0 0 0 0.24 0"/><feBlend in2="effect2_innerShadow_3051_47023" mode="normal" result="effect3_innerShadow_3051_47023"/></filter><filter id="b" color-interpolation-filters="sRGB" filterUnits="userSpaceOnUse" height="42" width="42" x="3" y="5.25"><feFlood flood-opacity="0" result="BackgroundImageFix"/><feColorMatrix in="SourceAlpha" result="hardAlpha" type="matrix" values="0 0 0 0 0 0 0 0 0 0 0 0 0 0 0 0 0 0 127 0"/><feMorphology in="SourceAlpha" operator="erode" radius="1.5" result="effect1_dropShadow_3051_47023"/><feOffset dy="2.25"/><feGaussianBlur stdDeviation="2.25"/><feComposite in2="hardAlpha" operator="out"/><feColorMatrix type="matrix" values="0 0 0 0 0.141176 0 0 0 0 0.141176 0 0 0 0 0.141176 0 0 0 0.1 0"/><feBlend in2="BackgroundImageFix" mode="normal" result="effect1_dropShadow_3051_47023"/><feBlend in="SourceGraphic" in2="effect1_dropShadow_3051_47023" mode="normal" result="shape"/></filter><linearGradient id="c" gradientUnits="userSpaceOnUse" x1="24" x2="26" y1=".000001" y2="48"><stop offset="0" stop-color="#fff" stop-opacity="0"/><stop offset="1" stop-color="#fff" stop-opacity=".12"/></linearGradient><linearGradient id="d"><stop offset="0" stop-color="#fff" stop-opacity=".8"/><stop offset="1" stop-color="#fff" stop-opacity=".5"/></linearGradient><linearGradient id="e" gradientUnits="userSpaceOnUse" x1="37.5275" x2="37.5275" xlink:href="#d" y1="15.1123" y2="23.0969"/><linearGradient id="f" gradientUnits="userSpaceOnUse" x1="31.3271" x2="31.3271" xlink:href="#d" y1="15.1821" y2="28.7424"/><linearGradient id="g" gradientUnits="userSpaceOnUse" x1="20.3502" x2="20.3502" xlink:href="#d" y1="15.1934" y2="34.3892"/><linearGradient id="h" gradientUnits="userSpaceOnUse" x1="24" x2="24" y1="0" y2="48"><stop offset="0" stop-color="#fff" stop-opacity=".12"/><stop offset="1" stop-color="#fff" stop-opacity="0"/></linearGradient><clipPath id="i"><rect height="48" rx="12" width="48"/></clipPath><g filter="url(#a)"><g clip-path="url(#i)"><rect fill="#155eef" height="48" rx="12" width="48"/><path d="m0 0h48v48h-48z" fill="url(#c)"/><g filter="url(#b)"><path d="m40.3504 21.9276c-1.5591 1.5591-4.0868 1.5591-5.6459 0s-1.5591-4.0869 0-5.646 4.0868-1.5591 5.6459 0 1.5591 4.0869 0 5.646z" fill="url(#e)" opacity=".4"/><path d="m40.3456 21.9272c-1.5591 1.5591-4.0869 1.559-5.646 0l-5.5757-5.5758c-1.5591-1.559-4.0869-1.559-5.646 0-1.5591 1.5591-1.5591 4.0869 0 5.646l5.5757 5.5757c1.5591 1.5591 4.0869 1.5591 5.646 0z" fill="url(#f)" opacity=".6"/><path d="m34.7003 27.5739c-1.5591 1.5591-4.0869 1.5591-5.6459 0l-10.8215-10.8215c-2.0788-2.0787-5.4491-2.0787-7.5279 0l-4.705 4.705c1.55909-1.5591 4.0869-1.5591 5.646 0l11.7624 11.7624c1.5591 1.5591 4.0869 1.5591 5.646 0z" fill="url(#g)"/></g></g><rect height="46" rx="11" stroke="url(#h)" stroke-width="2" width="46" x="1" y="1"/></g></svg>